<svg width="140" height="40" viewBox="0 0 140 40" fill="none" xmlns="http://www.w3.org/2000/svg">
<path d="M51.462 26.1415C50.322 26.1415 49.338 25.9555 48.51 25.5835C47.694 25.1995 47.058 24.6475 46.602 23.9275C46.158 23.1955 45.912 22.3075 45.864 21.2635C45.852 20.7475 45.846 20.2015 45.846 19.6255C45.846 19.0375 45.852 18.4795 45.864 17.9515C45.912 16.9315 46.164 16.0675 46.62 15.3595C47.076 14.6515 47.718 14.1115 48.546 13.7395C49.374 13.3675 50.346 13.1815 51.462 13.1815C52.362 13.1815 53.16 13.2955 53.856 13.5235C54.552 13.7395 55.134 14.0335 55.602 14.4055C56.082 14.7775 56.442 15.1855 56.682 15.6295C56.934 16.0735 57.066 16.5115 57.078 16.9435C57.09 17.0515 57.054 17.1415 56.97 17.2135C56.898 17.2855 56.808 17.3215 56.7 17.3215H54.072C53.94 17.3215 53.838 17.3035 53.766 17.2675C53.706 17.2195 53.652 17.1535 53.604 17.0695C53.52 16.8895 53.394 16.7035 53.226 16.5115C53.07 16.3075 52.848 16.1335 52.56 15.9895C52.284 15.8455 51.918 15.7735 51.462 15.7735C50.778 15.7735 50.238 15.9535 49.842 16.3135C49.458 16.6735 49.248 17.2495 49.212 18.0415C49.176 19.0735 49.176 20.1175 49.212 21.1735C49.248 22.0135 49.47 22.6195 49.878 22.9915C50.286 23.3635 50.826 23.5495 51.498 23.5495C51.954 23.5495 52.356 23.4715 52.704 23.3155C53.064 23.1595 53.346 22.9195 53.55 22.5955C53.754 22.2595 53.856 21.8335 53.856 21.3175V20.9755H52.164C52.032 20.9755 51.918 20.9335 51.822 20.8495C51.738 20.7535 51.696 20.6395 51.696 20.5075V19.1755C51.696 19.0435 51.738 18.9355 51.822 18.8515C51.918 18.7555 52.032 18.7075 52.164 18.7075H56.7C56.832 18.7075 56.94 18.7555 57.024 18.8515C57.108 18.9355 57.15 19.0435 57.15 19.1755V21.2275C57.15 22.2595 56.916 23.1415 56.448 23.8735C55.98 24.6055 55.314 25.1695 54.45 25.5655C53.598 25.9495 52.602 26.1415 51.462 26.1415ZM63.4451 26.1415C62.4371 26.1415 61.5851 25.9795 60.8891 25.6555C60.2051 25.3315 59.6771 24.8695 59.3051 24.2695C58.9451 23.6575 58.7411 22.9315 58.6931 22.0915C58.6811 21.8515 58.6751 21.5815 58.6751 21.2815C58.6751 20.9695 58.6811 20.6995 58.6931 20.4715C58.7411 19.6195 58.9571 18.8935 59.3411 18.2935C59.7251 17.6935 60.2591 17.2315 60.9431 16.9075C61.6391 16.5835 62.4731 16.4215 63.4451 16.4215C64.4291 16.4215 65.2631 16.5835 65.9471 16.9075C66.6431 17.2315 67.1831 17.6935 67.5671 18.2935C67.9511 18.8935 68.1671 19.6195 68.2151 20.4715C68.2271 20.6995 68.2331 20.9695 68.2331 21.2815C68.2331 21.5815 68.2271 21.8515 68.2151 22.0915C68.1671 22.9315 67.9571 23.6575 67.5851 24.2695C67.2251 24.8695 66.6971 25.3315 66.0011 25.6555C65.3171 25.9795 64.4651 26.1415 63.4451 26.1415ZM63.4451 23.9455C63.9851 23.9455 64.3751 23.7835 64.6151 23.4595C64.8671 23.1355 65.0111 22.6495 65.0471 22.0015C65.0591 21.8215 65.0651 21.5815 65.0651 21.2815C65.0651 20.9815 65.0591 20.7415 65.0471 20.5615C65.0111 19.9255 64.8671 19.4455 64.6151 19.1215C64.3751 18.7855 63.9851 18.6175 63.4451 18.6175C62.9171 18.6175 62.5271 18.7855 62.2751 19.1215C62.0231 19.4455 61.8851 19.9255 61.8611 20.5615C61.8491 20.7415 61.8431 20.9815 61.8431 21.2815C61.8431 21.5815 61.8491 21.8215 61.8611 22.0015C61.8851 22.6495 62.0231 23.1355 62.2751 23.4595C62.5271 23.7835 62.9171 23.9455 63.4451 23.9455Z" fill="black"/>
<path d="M75.3674 26.1415C74.2274 26.1415 73.2494 25.9555 72.4334 25.5835C71.6294 25.2115 70.9994 24.6655 70.5434 23.9455C70.0994 23.2255 69.8534 22.3315 69.8054 21.2635C69.7934 20.7715 69.7874 20.2435 69.7874 19.6795C69.7874 19.1155 69.7934 18.5755 69.8054 18.0595C69.8534 17.0155 70.1054 16.1335 70.5614 15.4135C71.0174 14.6815 71.6534 14.1295 72.4694 13.7575C73.2854 13.3735 74.2514 13.1815 75.3674 13.1815C76.1594 13.1815 76.8914 13.2835 77.5634 13.4875C78.2354 13.6795 78.8234 13.9675 79.3274 14.3515C79.8314 14.7235 80.2214 15.1795 80.4974 15.7195C80.7854 16.2475 80.9354 16.8475 80.9474 17.5195C80.9594 17.6275 80.9234 17.7175 80.8394 17.7895C80.7674 17.8615 80.6774 17.8975 80.5694 17.8975H78.1394C77.9834 17.8975 77.8634 17.8675 77.7794 17.8075C77.6954 17.7355 77.6234 17.6095 77.5634 17.4295C77.3954 16.7935 77.1194 16.3615 76.7354 16.1335C76.3634 15.8935 75.9014 15.7735 75.3494 15.7735C74.6894 15.7735 74.1674 15.9595 73.7834 16.3315C73.3994 16.6915 73.1894 17.2975 73.1534 18.1495C73.1174 19.1335 73.1174 20.1415 73.1534 21.1735C73.1894 22.0255 73.3994 22.6375 73.7834 23.0095C74.1674 23.3695 74.6894 23.5495 75.3494 23.5495C75.9014 23.5495 76.3694 23.4295 76.7534 23.1895C77.1374 22.9495 77.4074 22.5175 77.5634 21.8935C77.6114 21.7135 77.6774 21.5935 77.7614 21.5335C77.8574 21.4615 77.9834 21.4255 78.1394 21.4255H80.5694C80.6774 21.4255 80.7674 21.4615 80.8394 21.5335C80.9234 21.6055 80.9594 21.6955 80.9474 21.8035C80.9354 22.4755 80.7854 23.0815 80.4974 23.6215C80.2214 24.1495 79.8314 24.6055 79.3274 24.9895C78.8234 25.3615 78.2354 25.6495 77.5634 25.8535C76.8914 26.0455 76.1594 26.1415 75.3674 26.1415ZM87.0701 26.1415C86.0621 26.1415 85.2101 25.9795 84.5141 25.6555C83.8301 25.3315 83.3021 24.8695 82.9301 24.2695C82.5701 23.6575 82.3661 22.9315 82.3181 22.0915C82.3061 21.8515 82.3001 21.5815 82.3001 21.2815C82.3001 20.9695 82.3061 20.6995 82.3181 20.4715C82.3661 19.6195 82.5821 18.8935 82.9661 18.2935C83.3501 17.6935 83.8841 17.2315 84.5681 16.9075C85.2641 16.5835 86.0981 16.4215 87.0701 16.4215C88.0541 16.4215 88.8881 16.5835 89.5721 16.9075C90.2681 17.2315 90.8081 17.6935 91.1921 18.2935C91.5761 18.8935 91.7921 19.6195 91.8401 20.4715C91.8521 20.6995 91.8581 20.9695 91.8581 21.2815C91.8581 21.5815 91.8521 21.8515 91.8401 22.0915C91.7921 22.9315 91.5821 23.6575 91.2101 24.2695C90.8501 24.8695 90.3221 25.3315 89.6261 25.6555C88.9421 25.9795 88.0901 26.1415 87.0701 26.1415ZM87.0701 23.9455C87.6101 23.9455 88.0001 23.7835 88.2401 23.4595C88.4921 23.1355 88.6361 22.6495 88.6721 22.0015C88.6841 21.8215 88.6901 21.5815 88.6901 21.2815C88.6901 20.9815 88.6841 20.7415 88.6721 20.5615C88.6361 19.9255 88.4921 19.4455 88.2401 19.1215C88.0001 18.7855 87.6101 18.6175 87.0701 18.6175C86.5421 18.6175 86.1521 18.7855 85.9001 19.1215C85.6481 19.4455 85.5101 19.9255 85.4861 20.5615C85.4741 20.7415 85.4681 20.9815 85.4681 21.2815C85.4681 21.5815 85.4741 21.8215 85.4861 22.0015C85.5101 22.6495 85.6481 23.1355 85.9001 23.4595C86.1521 23.7835 86.5421 23.9455 87.0701 23.9455ZM94.0784 25.9615C93.9464 25.9615 93.8384 25.9195 93.7544 25.8355C93.6704 25.7515 93.6284 25.6435 93.6284 25.5115V17.0515C93.6284 16.9315 93.6704 16.8295 93.7544 16.7455C93.8384 16.6495 93.9464 16.6015 94.0784 16.6015H96.1484C96.2804 16.6015 96.3884 16.6495 96.4724 16.7455C96.5564 16.8295 96.5984 16.9315 96.5984 17.0515V17.7715C96.9224 17.3995 97.3064 17.1115 97.7504 16.9075C98.2064 16.7035 98.7164 16.6015 99.2804 16.6015H100.072C100.192 16.6015 100.294 16.6435 100.378 16.7275C100.474 16.8115 100.522 16.9195 100.522 17.0515V18.9055C100.522 19.0255 100.474 19.1335 100.378 19.2295C100.294 19.3135 100.192 19.3555 100.072 19.3555H98.3264C97.8344 19.3555 97.4504 19.4935 97.1744 19.7695C96.9104 20.0335 96.7784 20.4115 96.7784 20.9035V25.5115C96.7784 25.6435 96.7304 25.7515 96.6344 25.8355C96.5504 25.9195 96.4424 25.9615 96.3104 25.9615H94.0784ZM106.16 26.1415C105.152 26.1415 104.3 25.9795 103.604 25.6555C102.92 25.3315 102.392 24.8695 102.02 24.2695C101.66 23.6575 101.456 22.9315 101.408 22.0915C101.396 21.8515 101.39 21.5815 101.39 21.2815C101.39 20.9695 101.396 20.6995 101.408 20.4715C101.456 19.6195 101.672 18.8935 102.056 18.2935C102.44 17.6935 102.974 17.2315 103.658 16.9075C104.354 16.5835 105.188 16.4215 106.16 16.4215C107.144 16.4215 107.978 16.5835 108.662 16.9075C109.358 17.2315 109.898 17.6935 110.282 18.2935C110.666 18.8935 110.882 19.6195 110.93 20.4715C110.942 20.6995 110.948 20.9695 110.948 21.2815C110.948 21.5815 110.942 21.8515 110.93 22.0915C110.882 22.9315 110.672 23.6575 110.3 24.2695C109.94 24.8695 109.412 25.3315 108.716 25.6555C108.032 25.9795 107.18 26.1415 106.16 26.1415ZM106.16 23.9455C106.7 23.9455 107.09 23.7835 107.33 23.4595C107.582 23.1355 107.726 22.6495 107.762 22.0015C107.774 21.8215 107.78 21.5815 107.78 21.2815C107.78 20.9815 107.774 20.7415 107.762 20.5615C107.726 19.9255 107.582 19.4455 107.33 19.1215C107.09 18.7855 106.7 18.6175 106.16 18.6175C105.632 18.6175 105.242 18.7855 104.99 19.1215C104.738 19.4455 104.6 19.9255 104.576 20.5615C104.564 20.7415 104.558 20.9815 104.558 21.2815C104.558 21.5815 104.564 21.8215 104.576 22.0015C104.6 22.6495 104.738 23.1355 104.99 23.4595C105.242 23.7835 105.632 23.9455 106.16 23.9455ZM113.168 25.9615C113.036 25.9615 112.928 25.9195 112.844 25.8355C112.76 25.7515 112.718 25.6435 112.718 25.5115V17.0515C112.718 16.9195 112.76 16.8115 112.844 16.7275C112.928 16.6435 113.036 16.6015 113.168 16.6015H115.238C115.37 16.6015 115.478 16.6435 115.562 16.7275C115.646 16.8115 115.688 16.9195 115.688 17.0515V17.7355C116 17.3635 116.408 17.0515 116.912 16.7995C117.416 16.5475 118.01 16.4215 118.694 16.4215C119.39 16.4215 120.002 16.5775 120.53 16.8895C121.07 17.2015 121.49 17.6635 121.79 18.2755C122.102 18.8755 122.258 19.6135 122.258 20.4895V25.5115C122.258 25.6435 122.21 25.7515 122.114 25.8355C122.03 25.9195 121.928 25.9615 121.808 25.9615H119.54C119.42 25.9615 119.312 25.9195 119.216 25.8355C119.132 25.7515 119.09 25.6435 119.09 25.5115V20.5975C119.09 20.0335 118.952 19.6015 118.676 19.3015C118.412 18.9895 118.016 18.8335 117.488 18.8335C116.996 18.8335 116.6 18.9895 116.3 19.3015C116.012 19.6015 115.868 20.0335 115.868 20.5975V25.5115C115.868 25.6435 115.82 25.7515 115.724 25.8355C115.64 25.9195 115.538 25.9615 115.418 25.9615H113.168ZM127.075 26.1415C126.427 26.1415 125.845 26.0215 125.329 25.7815C124.825 25.5295 124.423 25.1935 124.123 24.7735C123.823 24.3535 123.673 23.8795 123.673 23.3515C123.673 22.4995 124.021 21.8275 124.717 21.3355C125.413 20.8315 126.337 20.4895 127.489 20.3095L129.739 19.9675V19.7155C129.739 19.2835 129.649 18.9535 129.469 18.7255C129.289 18.4975 128.959 18.3835 128.479 18.3835C128.143 18.3835 127.867 18.4495 127.651 18.5815C127.447 18.7135 127.285 18.8935 127.165 19.1215C127.057 19.2775 126.907 19.3555 126.715 19.3555H124.699C124.567 19.3555 124.465 19.3195 124.393 19.2475C124.321 19.1635 124.291 19.0675 124.303 18.9595C124.303 18.7435 124.381 18.4975 124.537 18.2215C124.705 17.9335 124.957 17.6515 125.293 17.3755C125.629 17.0995 126.061 16.8715 126.589 16.6915C127.117 16.5115 127.753 16.4215 128.497 16.4215C129.277 16.4215 129.943 16.5115 130.495 16.6915C131.047 16.8715 131.491 17.1235 131.827 17.4475C132.175 17.7715 132.433 18.1555 132.601 18.5995C132.769 19.0315 132.853 19.5115 132.853 20.0395V25.5115C132.853 25.6435 132.805 25.7515 132.709 25.8355C132.625 25.9195 132.523 25.9615 132.403 25.9615H130.315C130.183 25.9615 130.075 25.9195 129.991 25.8355C129.907 25.7515 129.865 25.6435 129.865 25.5115V24.8815C129.709 25.1095 129.499 25.3195 129.235 25.5115C128.971 25.7035 128.659 25.8535 128.299 25.9615C127.951 26.0815 127.543 26.1415 127.075 26.1415ZM127.921 24.0895C128.269 24.0895 128.581 24.0175 128.857 23.8735C129.145 23.7175 129.367 23.4835 129.523 23.1715C129.691 22.8475 129.775 22.4455 129.775 21.9655V21.7135L128.245 21.9835C127.681 22.0795 127.267 22.2295 127.003 22.4335C126.751 22.6255 126.625 22.8535 126.625 23.1175C126.625 23.3215 126.685 23.4955 126.805 23.6395C126.925 23.7835 127.081 23.8975 127.273 23.9815C127.465 24.0535 127.681 24.0895 127.921 24.0895Z" fill="#EC5863"/>
<path d="M14.2208 4.98869C15.6455 4.48917 17.2113 5.16285 17.7174 6.49273C18.1048 7.51091 17.7581 8.61769 16.9363 9.30529L17.3804 10.5163L18.0869 11.3316C18.2482 11.5182 18.4928 11.6074 18.738 11.5772C19.3991 11.4959 20.056 11.4928 20.6993 11.5604C20.9173 11.5836 21.1342 11.5116 21.2907 11.3595L21.8005 10.8661L22.1764 9.77185C21.8566 9.33293 21.7483 8.75165 21.9379 8.19933C22.2597 7.26306 23.3107 6.77916 24.2454 7.16256C25.0506 7.49245 25.4887 8.38808 25.253 9.22153C25.1032 9.75239 24.7242 10.15 24.2576 10.3468L23.8415 11.5594L23.9364 12.2276C23.969 12.4573 24.1054 12.6579 24.3047 12.7782C24.9746 13.1847 25.5899 13.6817 26.1301 14.2562C26.3116 14.4496 26.5824 14.5325 26.8427 14.4801L28.1825 14.2111L29.6961 13.3717C29.7039 12.6274 30.1017 11.9079 30.8019 11.5195C31.8606 10.9326 33.2014 11.327 33.7655 12.4024C34.2748 13.3725 33.9551 14.592 33.0327 15.1892C32.3124 15.6547 31.4335 15.6377 30.7551 15.2402L29.2325 16.084L28.3823 16.9871C28.1541 17.2294 28.0728 17.572 28.1599 17.8928C28.1604 17.8947 28.1607 17.896 28.1612 17.8979C28.3102 18.4507 28.4006 19.0063 28.438 19.557C28.4597 19.8851 28.6454 20.1803 28.9362 20.3371L30.0459 20.9353L32.2454 21.35C32.6331 21.0124 33.1672 20.8491 33.713 20.9515C34.6915 21.1363 35.3215 22.1048 35.0708 23.0797C34.8551 23.9145 34.0325 24.4703 33.1723 24.3609C32.5857 24.2863 32.1121 23.9338 31.8578 23.4598L29.6441 23.0427L28.2787 23.2089C28.027 23.24 27.8072 23.3975 27.7046 23.628C27.296 24.5379 26.7323 25.3748 26.0364 26.0973C25.8634 26.2768 25.7985 26.5338 25.8613 26.7744L26.2006 28.0843L27.0384 29.3942C27.9599 29.2563 28.9188 29.6536 29.4508 30.4856C30.1659 31.6034 29.8415 33.0834 28.7285 33.8046C27.6161 34.5257 26.1023 34.2119 25.3732 33.1081C24.8627 32.3353 24.8571 31.382 25.2709 30.6257L24.3815 29.2354L23.288 28.3384C23.1261 28.2048 22.9054 28.1695 22.7078 28.2397C22.4885 28.3178 22.2649 28.3876 22.0362 28.4485C20.7935 28.7796 19.5406 28.8223 18.3489 28.6198C18.1742 28.5905 17.9955 28.6402 17.8619 28.7557L17.2751 29.2642L16.8386 30.336C17.1339 30.7923 17.2093 31.3783 16.9894 31.919C16.6156 32.8366 15.5392 33.2616 14.6276 32.8274C13.8425 32.4535 13.4548 31.535 13.7366 30.7157C13.916 30.1939 14.3158 29.8178 14.7928 29.6473L15.2763 28.4594L15.1865 27.4161C14.3146 26.8717 13.5388 26.1731 12.9044 25.3474L11.4132 25.4942L10.0175 26.1823C10.0266 27.1158 9.54482 28.0039 8.69918 28.4338C7.50426 29.0407 6.03648 28.5034 5.42117 27.2331C4.80604 25.9634 5.27521 24.4421 6.47012 23.8352C7.36433 23.3809 8.41073 23.5673 9.13879 24.2224L10.455 23.573L11.3685 22.5962C11.4282 22.5323 11.4503 22.4424 11.4276 22.3584L11.4273 22.3571C11.0051 20.7902 11.0482 19.2063 11.4718 17.7506C11.4945 17.6707 11.4774 17.5846 11.4235 17.521L10.6355 16.5826L8.93758 15.6942C8.46992 15.8994 7.9155 15.8988 7.42793 15.6434C6.54711 15.182 6.22972 14.0748 6.75476 13.2157C7.2157 12.4624 8.19747 12.1764 8.99469 12.5626C9.51073 12.8124 9.84362 13.2797 9.94203 13.7966L11.6399 14.6849L12.8484 14.7983C12.9323 14.8064 13.0141 14.7711 13.0674 14.7061C13.6155 14.0312 14.268 13.4354 15.0092 12.9467C15.2126 12.8119 15.339 12.5886 15.3422 12.3453L15.3547 11.2518L14.881 9.96133C13.8541 9.88759 12.9251 9.26768 12.557 8.30058C12.0509 6.97071 12.7959 5.48757 14.2208 4.98869Z" fill="#EC5863"/>
<path d="M25.9898 18.4765C25.0729 15.0737 21.5559 13.0542 18.1342 13.966C14.7125 14.8778 12.6819 18.3756 13.5988 21.7785C14.5156 25.1813 18.0327 27.2008 21.4543 26.289C24.876 25.3772 26.9066 21.8794 25.9898 18.4765Z" fill="#F58A97"/>
<path d="M20.9484 24.4109C17.8476 25.2372 14.6687 23.6565 13.4173 20.8204C13.4527 21.1391 13.5128 21.4592 13.5988 21.7785C14.5156 25.1814 18.0326 27.2008 21.4543 26.289C24.8761 25.3771 26.9066 21.8795 25.9898 18.4765C25.9037 18.1573 25.7949 17.8502 25.6653 17.5566C26.0073 20.635 24.049 23.5847 20.9484 24.4109Z" fill="#F07281"/>
<path d="M11.324 33.496C11.0629 32.5269 10.0614 31.9518 9.08698 32.2115C8.11258 32.4711 7.53433 33.4672 7.79542 34.4362C8.05651 35.4053 9.05807 35.9804 10.0325 35.7207C11.0069 35.4611 11.5851 34.465 11.324 33.496Z" fill="#EB5569"/>
<path d="M34.1106 27.9379C33.9381 27.2979 33.2766 26.918 32.633 27.0895C31.9894 27.261 31.6074 27.9189 31.7799 28.559C31.9523 29.1991 32.6139 29.5789 33.2575 29.4074C33.9011 29.2359 34.283 28.578 34.1106 27.9379Z" fill="#EB5569"/>
<path d="M30.8429 6.00213C30.5889 5.05936 29.6145 4.49988 28.6665 4.75249C27.7185 5.0051 27.1559 5.97416 27.4099 6.91693C27.6639 7.8597 28.6383 8.41918 29.5863 8.16656C30.5343 7.91395 31.0969 6.9449 30.8429 6.00213Z" fill="#EB5569"/>
<path d="M20.1955 22.0477C19.9587 21.1687 19.0502 20.6471 18.1664 20.8826C17.2826 21.1181 16.7581 22.0216 16.9949 22.9005C17.2318 23.7795 18.1402 24.3011 19.024 24.0656C19.9078 23.8301 20.4323 22.9266 20.1955 22.0477Z" fill="#EB5569"/>
<path d="M24.3108 19.5818C24.1496 18.9835 23.5313 18.6285 22.9297 18.7888C22.3281 18.9491 21.9711 19.564 22.1323 20.1623C22.2935 20.7606 22.9119 21.1156 23.5134 20.9553C24.115 20.795 24.472 20.18 24.3108 19.5818Z" fill="#EB5569"/>
<path d="M19.9578 17.0961C19.8224 16.5937 19.3032 16.2956 18.7981 16.4302C18.2929 16.5648 17.9931 17.0812 18.1285 17.5835C18.2639 18.0859 18.7831 18.384 19.2882 18.2494C19.7934 18.1148 20.0932 17.5984 19.9578 17.0961Z" fill="#EB5569"/>
</svg>
